<?xml version="1.0" encoding="UTF-8"?><svg xmlns="http://www.w3.org/2000/svg"><symbol id="i" fill="currentColor" viewBox="0 0 25 24"><path d="m8 21c-0.55228 0-1-0.4477-1-1s0.44772-1 1-1h3v-3.1c-0.8167-0.1833-1.5458-0.5292-2.1875-1.0375s-1.1125-1.1458-1.4125-1.9125c-1.25-0.15-2.2958-0.6958-3.1375-1.6375s-1.2625-2.0458-1.2625-3.3125v-1c0-0.55 0.19583-1.0208 0.5875-1.4125s0.8625-0.5875 1.4125-0.5875h2v-1c0-0.55228 0.44772-1 1-1h8c0.5523 0 1 0.44772 1 1v1h2c0.55 0 1.0208 0.19583 1.4125 0.5875s0.5875 0.8625 0.5875 1.4125v1c0 1.2667-0.4208 2.3708-1.2625 3.3125s-1.8875 1.4875-3.1375 1.6375c-0.3 0.7667-0.7708 1.4042-1.4125 1.9125s-1.3708 0.8542-2.1875 1.0375v3.1h3c0.5523 0 1 0.4477 1 1s-0.4477 1-1 1h-8zm-1-10.2v-3.8h-2v1c0 0.63333 0.18333 1.2042 0.55 1.7125 0.36667 0.5083 0.85 0.8708 1.45 1.0875zm5 3.2c0.8333 0 1.5417-0.2917 2.125-0.875s0.875-1.2917 0.875-2.125v-6h-6v6c0 0.8333 0.29167 1.5417 0.875 2.125 0.5833 0.5833 1.2917 0.875 2.125 0.875zm5-3.2c0.6-0.2167 1.0833-0.5792 1.45-1.0875 0.3667-0.50833 0.55-1.0792 0.55-1.7125v-1h-2v3.8z"/><path d="m12 14c0.8333 0 1.5417-0.2917 2.125-0.875s0.875-1.2917 0.875-2.125v-6h-6v6c0 0.8333 0.29167 1.5417 0.875 2.125 0.5833 0.5833 1.2917 0.875 2.125 0.875z"/></symbol></svg>