<?xml version="1.0" encoding="UTF-8"?><svg xmlns="http://www.w3.org/2000/svg"><symbol id="i" fill="currentColor" viewBox="0 0 24 24"><path d="m7.7375 6.55 2.75-3.5625c0.1917-0.25 0.421-0.4375 0.688-0.5625s0.5462-0.1875 0.8375-0.1875 0.5662 0.0625 0.8245 0.1875 0.4833 0.3125 0.675 0.5625l2.75 3.5625 4.175 1.3875c0.4167 0.13333 0.7417 0.37291 0.975 0.71875 0.2333 0.34583 0.35 0.72491 0.35 1.1372 0 0.19033-0.0271 0.38071-0.0812 0.57101-0.0542 0.1903-0.1438 0.373-0.2688 0.548l-2.6875 3.8125 0.1 4.0375c0.0083 0.5583-0.175 1.0312-0.55 1.4187s-0.8167 0.5813-1.325 0.5813c-0.0667 0-0.25-0.0292-0.55-0.0875l-4.4-1.225-4.39 1.226c-0.08166 0.0327-0.1725 0.0552-0.2725 0.0677s-0.19166 0.0188-0.275 0.0188c-0.50666 0-0.95-0.1958-1.33-0.5875s-0.56166-0.8667-0.545-1.425l0.1-4.0375-2.675-3.8125c-0.1245-0.1735-0.21391-0.355-0.26825-0.5445-0.0545-0.1893-0.08175-0.37868-0.08175-0.56801 0-0.4005 0.11534-0.77292 0.346-1.1172 0.23067-0.34434 0.55284-0.58859 0.9665-0.73275l4.1625-1.3875zm1.15 1.6-4.775 1.5875 3.0625 4.4125-0.1125 4.7125 4.9375-1.3625 4.95 1.375-0.1125-4.725 3.0625-4.3625-4.7895-1.625-3.1105-4.0625-3.1125 4.05z"/><path d="m8.8875 8.15-4.775 1.5875 3.0625 4.4125-0.1125 4.7125 4.9375-1.3625 4.95 1.375-0.1125-4.725 3.0625-4.3625-4.7895-1.625-3.1105-4.0625-3.1125 4.05z"/></symbol></svg>