<?xml version="1.0" encoding="UTF-8"?><svg xmlns="http://www.w3.org/2000/svg"><symbol id="i" fill="currentColor" viewBox="0 0 24 24"><path d="m9.9809 12.25c-1.075 0-1.9896-0.3771-2.7438-1.1312-0.75416-0.7542-1.1312-1.6688-1.1312-2.7438s0.37709-1.9896 1.1312-2.7438c0.75417-0.75417 1.6688-1.1312 2.7438-1.1312 1.075 0 1.9896 0.37708 2.7438 1.1312 0.7541 0.75417 1.1312 1.6688 1.1312 2.7438s-0.3771 1.9896-1.1312 2.7438c-0.7542 0.7541-1.6688 1.1312-2.7438 1.1312zm-6.775 7.65c-0.55228 0-1-0.4477-1-1v-1.65c0-0.55 0.13959-1.0521 0.41875-1.5062 0.27917-0.4542 0.65642-0.8022 1.1318-1.0441 1.0163-0.4998 2.0432-0.8768 3.0808-1.1309 1.0375-0.2542 2.0854-0.3813 3.1438-0.3813 1.0584 0 2.1063 0.1271 3.1438 0.3813 1.0375 0.2541 2.0644 0.6311 3.0807 1.1309 0.4754 0.2419 0.8526 0.5899 1.1318 1.0441 0.2791 0.4541 0.4187 0.9562 0.4187 1.5062v1.65c0 0.5523-0.4477 1-1 1h-13.55zm6.775-9.525c0.54997 0 1.0209-0.1958 1.4125-0.5875 0.3917-0.39167 0.5875-0.8625 0.5875-1.4125s-0.1958-1.0208-0.5875-1.4125c-0.3916-0.39167-0.8625-0.5875-1.4125-0.5875-0.55 0-1.0208 0.19583-1.4125 0.5875-0.39166 0.39167-0.5875 0.8625-0.5875 1.4125s0.19584 1.0208 0.5875 1.4125c0.39167 0.3917 0.8625 0.5875 1.4125 0.5875zm-5.9 7.65h11.8v-0.775c0-0.1865-0.0458-0.356-0.1375-0.5085-0.0916-0.1527-0.2166-0.2707-0.375-0.354-0.8916-0.4417-1.7847-0.7729-2.6792-0.9937-0.8947-0.2209-1.7974-0.3313-2.7083-0.3313-0.91666 0-1.8208 0.1104-2.7125 0.3313-0.89166 0.2208-1.7833 0.552-2.675 0.9937-0.15833 0.0833-0.28333 0.2013-0.375 0.354-0.09166 0.1525-0.1375 0.322-0.1375 0.5085v0.775z"/><path d="m9.9809 10.375c0.54997 0 1.0209-0.1958 1.4125-0.5875 0.3917-0.39167 0.5875-0.8625 0.5875-1.4125s-0.1958-1.0208-0.5875-1.4125c-0.3916-0.39167-0.8625-0.5875-1.4125-0.5875-0.55 0-1.0208 0.19583-1.4125 0.5875-0.39166 0.39167-0.5875 0.8625-0.5875 1.4125s0.19584 1.0208 0.5875 1.4125c0.39167 0.3917 0.8625 0.5875 1.4125 0.5875z"/><path d="m4.0809 18.025h11.8v-0.775c0-0.1865-0.0458-0.356-0.1375-0.5085-0.0916-0.1527-0.2166-0.2707-0.375-0.354-0.8916-0.4417-1.7847-0.7729-2.6792-0.9937-0.8947-0.2209-1.7974-0.3313-2.7083-0.3313-0.91666 0-1.8208 0.1104-2.7125 0.3313-0.89166 0.2208-1.7833 0.552-2.675 0.9937-0.15833 0.0833-0.28333 0.2013-0.375 0.354-0.09166 0.1525-0.1375 0.322-0.1375 0.5085v0.775z"/><path d="m17.418 10.85v1.975h1.875v-1.975h1.975v-1.875h-1.975v-1.975h-1.875v1.975h-1.975v1.875h1.975z"/></symbol></svg>