<?xml version="1.0" encoding="UTF-8"?><svg xmlns="http://www.w3.org/2000/svg"><symbol id="i" fill="currentColor" viewBox="0 0 25 24"><path d="m9 22c-0.55 0-1.0208-0.1958-1.4125-0.5875-0.39167-0.3917-0.5875-0.8625-0.5875-1.4125s0.19583-1.0208 0.5875-1.4125c0.39166-0.3917 0.8625-0.5875 1.4125-0.5875s1.0208 0.1958 1.4125 0.5875 0.5875 0.8625 0.5875 1.4125-0.1958 1.0208-0.5875 1.4125-0.86248 0.5875-1.4125 0.5875zm10 0c-0.55 0-1.0208-0.1958-1.4125-0.5875s-0.5875-0.8625-0.5875-1.4125 0.1958-1.0208 0.5875-1.4125 0.8625-0.5875 1.4125-0.5875 1.0208 0.1958 1.4125 0.5875 0.5875 0.8625 0.5875 1.4125-0.1958 1.0208-0.5875 1.4125-0.8625 0.5875-1.4125 0.5875zm-10.85-16 2.4 5h7l2.75-5h-12.15zm-0.95-2h14.75c0.3833 0 0.675 0.17083 0.875 0.5125s0.2083 0.6875 0.025 1.0375l-3.55 6.4c-0.1833 0.3333-0.4292 0.5917-0.7375 0.775s-0.6458 0.275-1.0125 0.275h-7.45l-1.1 2h11c0.5523 0 1 0.4477 1 1s-0.4477 1-1 1h-11c-0.75 0-1.3167-0.3292-1.7-0.9875-0.38334-0.6583-0.4-1.3125-0.05-1.9625l1.35-2.45-3.6-7.6h-1c-0.55229 0-1-0.44772-1-1s0.44771-1 1-1h1.6179c0.38605 0 0.73763 0.22222 0.90327 0.57094l0.67881 1.4291z"/><path d="m8.15 6 2.4 5h7l2.75-5h-12.15z"/></symbol></svg>