<?xml version="1.0" encoding="UTF-8"?><svg fill="none" viewBox="0 0 10 13" xmlns="http://www.w3.org/2000/svg"><path d="m4.8013 12.24-0.58421-5.1727c-0.01008-0.08925-0.07841-0.16083-0.16709-0.17504l-3.8177-0.61181c-0.22447-0.03597-0.22447-0.35898-2e-6 -0.39496l3.82-0.61217c0.08759-0.01404 0.15547-0.0841 0.16674-0.17209l0.58262-4.5517c0.0298-0.23281 0.36696-0.23281 0.39676 0l0.58262 4.5517c0.01127 0.08799 0.07915 0.15805 0.16674 0.17209l3.82 0.61217c0.22447 0.03598 0.22448 0.35899 0 0.39496l-3.8177 0.61181c-0.08868 0.01421-0.15701 0.08579-0.16709 0.17504l-0.58421 5.1727c-0.02674 0.2367-0.37074 0.2367-0.39748 0z" fill="url(#a)"/><defs><linearGradient id="a" x1="9.9646" x2="-.52184" y1="-1" y2="13.6" gradientUnits="userSpaceOnUse"><stop stop-color="#3E8BFF" offset="0"/><stop stop-color="#AFA4F7" offset="1"/></linearGradient></defs></svg>