<?xml version="1.0" encoding="UTF-8"?><svg fill="none" viewBox="0 0 11 13" xmlns="http://www.w3.org/2000/svg"><path d="m5.3015 12.378-0.64964-5.3096c-0.01093-0.08934-0.08021-0.16038-0.16925-0.17355l-4.1451-0.61319c-0.22764-0.03367-0.22764-0.36202-1e-6 -0.39569l4.1476-0.61356c0.08787-0.013 0.15664-0.08239 0.16884-0.17038l0.64798-4.6729c0.03189-0.23004 0.36431-0.23004 0.3962 1e-6l0.64798 4.6729c0.0122 0.08799 0.08097 0.15738 0.16884 0.17038l4.1477 0.61356c0.2276 0.03367 0.2276 0.36202 0 0.39569l-4.1452 0.61319c-0.08904 0.01317-0.15832 0.08421-0.16925 0.17355l-0.64964 5.3096c-0.02867 0.2343-0.36837 0.2343-0.39704 0z" fill="url(#a)"/><defs><linearGradient id="a" x1="10.878" x2=".68537" y1="-1" y2="14.374" gradientUnits="userSpaceOnUse"><stop stop-color="#823EFF" offset="0"/><stop stop-color="#ECD0F2" offset="1"/></linearGradient></defs></svg>