<?xml version="1.0" encoding="UTF-8"?><svg viewBox="0 0 24 24" xmlns="http://www.w3.org/2000/svg"><path d="m2 3c0-0.55228 0.44772-1 1-1h7c0.5523 0 1 0.44772 1 1v7c0 0.5523-0.4477 1-1 1h-7c-0.55228 0-1-0.4477-1-1v-7zm2 1v5h5v-5h-5z" clip-rule="evenodd" fill="#1980EB" fill-rule="evenodd"/><path d="m2 14c0-0.5523 0.44772-1 1-1h7c0.5523 0 1 0.4477 1 1v7c0 0.5523-0.4477 1-1 1h-7c-0.55228 0-1-0.4477-1-1v-7zm2 1v5h5v-5h-5z" clip-rule="evenodd" fill="#1980EB" fill-rule="evenodd"/><path d="m14 2c-0.5523 0-1 0.44772-1 1v7c0 0.5523 0.4477 1 1 1h7c0.5523 0 1-0.4477 1-1v-7c0-0.55228-0.4477-1-1-1h-7zm1 7v-5h5v5h-5z" clip-rule="evenodd" fill="#1980EB" fill-rule="evenodd"/><path d="m14 19c-0.5523 0-1 0.4477-1 1v1c0 0.5523 0.4477 1 1 1h1c0.5523 0 1-0.4477 1-1v-1c0-0.5523-0.4477-1-1-1h-1z" fill="#1980EB"/><path d="m19 14c0-0.5523 0.4477-1 1-1h1c0.5523 0 1 0.4477 1 1v1c0 0.5523-0.4477 1-1 1h-1c-0.5523 0-1-0.4477-1-1v-1z" fill="#1980EB"/><path d="m13 14c0-0.5523 0.4477-1 1-1h1c0.5523 0 1 0.4477 1 1v1c0 0.5523-0.4477 1-1 1h-1c-0.5523 0-1-0.4477-1-1v-1z" fill="#1980EB"/><path d="m20 19c-0.5523 0-1 0.4477-1 1v1c0 0.5523 0.4477 1 1 1h1c0.5523 0 1-0.4477 1-1v-1c0-0.5523-0.4477-1-1-1h-1z" fill="#1980EB"/></svg>