<?xml version="1.0" encoding="UTF-8"?><svg xmlns="http://www.w3.org/2000/svg"><symbol id="i" fill="currentColor" viewBox="0 0 25 24"><path d="m17.344 8.536c0.296-0.46624 0.1581-1.0842-0.3082-1.3802-0.4662-0.29603-1.0842-0.15804-1.3802 0.30821l-3.8243 6.0232-2.6789-2.3074c-0.41846-0.3604-1.0499-0.3134-1.4103 0.1051-0.36043 0.4184-0.31338 1.0499 0.10507 1.4103l3.5555 3.0625c0.2201 0.1896 0.5118 0.2741 0.7992 0.2315 0.2873-0.0425 0.542-0.208 0.6977-0.4532l4.4444-7z"/><path d="m12.5 2c-5.5228 0-10 4.4772-10 10 0 5.5228 4.4772 10 10 10 5.5228 0 10-4.4772 10-10 0-5.5228-4.4772-10-10-10zm-8 10c0-4.4183 3.5817-8 8-8 4.4183 0 8 3.5817 8 8 0 4.4183-3.5817 8-8 8-4.4183 0-8-3.5817-8-8z" clip-rule="evenodd" fill-rule="evenodd"/></symbol></svg>