<?xml version="1.0" encoding="UTF-8"?><svg xmlns="http://www.w3.org/2000/svg"><symbol id="i" fill="currentColor" viewBox="0 0 24 24"><path d="m12.75 4.875c0-0.41421-0.3358-0.75-0.75-0.75s-0.75 0.33579-0.75 0.75v3.375c0 0.22785 0.1036 0.44333 0.2815 0.58568l1.875 1.5c0.3234 0.2587 0.7954 0.2063 1.0542-0.1172 0.2587-0.32345 0.2063-0.79542-0.1172-1.0542l-1.5935-1.2748v-3.0146z"/><path d="m5.25 8.25c0-3.7279 3.022-6.75 6.75-6.75 3.728 0 6.75 3.0221 6.75 6.75 0 3.728-3.022 6.75-6.75 6.75-3.728 0-6.75-3.022-6.75-6.75zm6.75-5.25c-2.8995 0-5.25 2.3505-5.25 5.25 0 2.8995 2.3505 5.25 5.25 5.25s5.25-2.3505 5.25-5.25c0-2.8995-2.3505-5.25-5.25-5.25z" clip-rule="evenodd" fill-rule="evenodd"/><path d="m4.5 18.75c-0.41421 0-0.75 0.3358-0.75 0.75s0.33579 0.75 0.75 0.75h4.5c0.41423 0 0.75-0.3358 0.75-0.75s-0.33577-0.75-0.75-0.75h-4.5z"/><path d="m4.5 16.5c-1.6569 0-3 1.3432-3 3s1.3431 3 3 3h15c1.6568 0 3-1.3432 3-3s-1.3432-3-3-3h-15zm-1.5 3c0-0.8284 0.67157-1.5 1.5-1.5h15c0.8284 0 1.5 0.6716 1.5 1.5s-0.6716 1.5-1.5 1.5h-15c-0.82843 0-1.5-0.6716-1.5-1.5z" clip-rule="evenodd" fill-rule="evenodd"/></symbol></svg>