<?xml version="1.0" encoding="UTF-8"?><svg xmlns="http://www.w3.org/2000/svg"><symbol id="i" fill="currentColor" viewBox="0 0 24 24"><path d="m9.1639 21.854c-0.2908-0.183-0.4672-0.5026-0.4672-0.8463v-1.8346l-4.4706 1.916c-0.3758 0.1611-0.8119 0.0771-1.101-0.212-0.2892-0.2892-0.3731-0.7252-0.2121-1.1011l1.916-4.4705h-1.8346c-0.3437 0-0.6632-0.1765-0.8463-0.4673-0.2078-0.3301-0.1813-0.7052-0.0174-1.0436 0.0726-0.1491 0.2468-0.5033 0.5004-0.9962 0.3378-0.6566 0.8178-1.5618 1.3864-2.5561 1.1212-1.9606 2.6433-4.3686 4.1343-5.8596 3.1667-3.1667 8.3009-3.1667 11.468 0s3.1667 8.3009 0 11.468c-1.491 1.491-3.899 3.013-5.8596 4.1342-0.9943 0.5687-1.8995 1.0486-2.5561 1.3864-0.4929 0.2536-0.8471 0.4278-0.9962 0.5004-0.33471 0.1624-0.71811 0.1875-1.0436-0.0174zm1.5328-2.4732c0.5824-0.3049 1.2993-0.6914 2.0703-1.1323 1.9532-1.117 4.153-2.5272 5.4382-3.8124 2.3856-2.3856 2.3856-6.2535 0-8.6392-2.3857-2.3856-6.2536-2.3856-8.6392 0-1.2852 1.2852-2.6953 3.485-3.8123 5.4382-0.441 0.771-0.8275 1.4879-1.1324 2.0703h1.7242c0.3362 0 0.6498 0.1689 0.8349 0.4495 0.185 0.2807 0.2167 0.6355 0.0843 0.9445l-1.5286 3.5666 3.5666-1.5285c0.309-0.1325 0.6638-0.1008 0.94451 0.0843 0.2806 0.185 0.4495 0.4987 0.4495 0.8348v1.7242z" clip-rule="evenodd" fill-rule="evenodd"/><path d="m9.9944 10.007c0-2.2091 1.7909-4 4-4s4 1.7909 4 4c0 2.2091-1.7909 4-4 4s-4-1.7909-4-4z"/></symbol></svg>