<?xml version="1.0" encoding="UTF-8"?><svg fill="none" viewBox="0 0 16 16" xmlns="http://www.w3.org/2000/svg"><path d="m7.0707 0.92866c0.37583-0.79181 1.4997-0.79997 1.887-0.013695l1.7589 3.5711c0.1033 0.20992 0.305 0.35413 0.537 0.38418l3.8245 0.49519c0.8684 0.11242 1.2242 1.177 0.5979 1.789l-2.7647 2.7014c-0.1658 0.16199-0.2404 0.39549-0.1994 0.62359l0.6934 3.8508c0.1539 0.8549-0.7393 1.5153-1.5115 1.1173l-3.4782-1.7924c-0.20538-0.1058-0.44978-0.1033-0.65292 0.0067l-3.3984 1.8412c-0.77296 0.4188-1.687-0.2428-1.5306-1.1079l0.40399-2.2343c0.04123-0.2281 0.15687-0.436 0.32881-0.5913l0.81775-0.7386 1.1703-0.83843 1.607-0.89083 1.5568-0.75574c0.03682-0.01788 0.01817-0.07361-0.02197-0.06571l-1.692 0.33237-0.94323 0.19214-1.2751 0.19214-1.2052 0.0524-0.50581-0.02334c-0.41549-0.01918-0.8229-0.12154-1.1981-0.30099l-0.06379-0.0305c-0.11318-0.05411-0.21572-0.12814-0.30274-0.21852l-1.1892-1.2349c-0.58966-0.61233-0.24333-1.635 0.59707-1.763l3.9376-0.59989c0.22938-0.03497 0.42648-0.18152 0.52597-0.39113l1.6888-3.5583z" fill="url(#a)"/><defs><linearGradient id="a" x1="13.188" x2="1.5196" y1="2.3069" y2="14.272" gradientUnits="userSpaceOnUse"><stop stop-color="#E85EF7" offset="0"/><stop stop-color="#A46DF7" offset=".37359"/><stop stop-color="#4396F8" offset="1"/></linearGradient></defs></svg>