<?xml version="1.0" encoding="UTF-8"?><svg fill="none" viewBox="0 0 48 48" xmlns="http://www.w3.org/2000/svg"><rect width="48" height="48" rx="10" fill="url(#a)"/><g clip-path="url(#b)"><path d="m22.118 9.2519c0.7532-1.6559 3.0058-1.6729 3.782-0.02864l3.5254 7.468c0.2071 0.439 0.6112 0.7406 1.0764 0.8034l7.6653 1.0356c1.7404 0.2351 2.4536 2.4614 1.1983 3.7411l-5.5413 5.6492c-0.3321 0.3386-0.4818 0.8271-0.3995 1.3039l1.3897 8.053c0.3085 1.7879-1.4818 3.1688-3.0295 2.3366l-6.9713-3.7484c-0.4116-0.2213-0.9014-0.2161-1.3086 0.0141l-6.8112 3.8504c-1.5493 0.8758-3.3812-0.5079-3.0677-2.317l0.8097-4.6724c0.0826-0.4769 0.3144-0.9118 0.659-1.2366l1.639-1.5445 2.3456-1.7533 3.2209-1.863 3.1203-1.5804c0.0738-0.0374 0.0364-0.1539-0.0441-0.1374l-3.3913 0.6951-1.8905 0.4018-2.5557 0.4018-2.4156 0.1096-1.0138-0.0489c-0.8327-0.0401-1.6493-0.2541-2.4013-0.6294l-0.1279-0.0638c-0.2268-0.1131-0.4324-0.2679-0.6068-0.4569l-2.3834-2.5825c-1.1818-1.2805-0.48769-3.4191 1.1967-3.6869l7.8921-1.2545c0.4597-0.0731 0.8548-0.3796 1.0542-0.8179l3.3849-7.4412z" fill="#fff"/></g><defs><linearGradient id="a" x1="3.1279" x2="44.872" y1="-1.0868e-6" y2="48" gradientUnits="userSpaceOnUse"><stop stop-color="#3E8BFF" offset="0"/><stop stop-color="#857CFF" offset="1"/></linearGradient><clipPath id="b"><rect transform="translate(8 8)" width="32" height="32" fill="#fff"/></clipPath></defs></svg>