<?xml version="1.0" encoding="UTF-8"?><svg fill="none" viewBox="0 0 48 48" xmlns="http://www.w3.org/2000/svg"><rect width="48" height="48" rx="10" fill="url(#a)"/><path d="m8.0625 16.596c0-4.7128 3.8205-8.5333 8.5333-8.5333h14.933c4.7128 0 8.5333 3.8205 8.5333 8.5333v14.933c0 4.7128-3.8205 8.5333-8.5333 8.5333h-14.933c-4.7128 0-8.5333-3.8205-8.5333-8.5333v-14.933zm16-3.7333c-0.5891 0-1.0667 0.4775-1.0667 1.0667v2.8952c0 0.5891 0.4776 1.0667 1.0667 1.0667s1.0667-0.4776 1.0667-1.0667v-1.7665c4.5047 0.528 8 4.3581 8 9.0046 0 5.0074-4.0593 9.0667-9.0667 9.0667s-9.0667-4.0593-9.0667-9.0667c0-2.211 0.7901-4.2346 2.1044-5.8082 0.3777-0.4522 0.3173-1.1248-0.1349-1.5025-0.4521-0.3776-1.1248-0.3172-1.5024 0.1349-1.6229 1.9429-2.6004 4.4466-2.6004 7.1758 0 6.1856 5.0144 11.2 11.2 11.2s11.2-5.0144 11.2-11.2-5.0144-11.2-11.2-11.2zm-2.5029 7.1886c-0.4166-0.4165-1.0919-0.4165-1.5085 0-0.4165 0.4166-0.4165 1.0919 0 1.5085l3.2572 3.2571c0.4165 0.4166 1.0919 0.4166 1.5084 0 0.4166-0.4165 0.4166-1.0919 0-1.5084l-3.2571-3.2572z" clip-rule="evenodd" fill="#fff" fill-rule="evenodd"/><defs><linearGradient id="a" x1="3.1279" x2="44.872" y1="-1.0868e-6" y2="48" gradientUnits="userSpaceOnUse"><stop stop-color="#3E8BFF" offset="0"/><stop stop-color="#857CFF" offset="1"/></linearGradient></defs></svg>