<?xml version="1.0" encoding="UTF-8"?><svg fill="none" viewBox="0 0 48 48" xmlns="http://www.w3.org/2000/svg"><rect width="48" height="48" rx="10" fill="url(#a)"/><path d="m16.5 9c-2.7614 0-5 2.2386-5 5v20c0 2.7614 2.2386 5 5 5h15c2.7614 0 5-2.2386 5-5v-15.927c0-1.6246-0.7894-3.1479-2.1166-4.0848l-5.7696-4.0726c-0.8435-0.59547-1.8507-0.91516-2.8834-0.91516h-9.2304zm15.5 12c0 0.5523-0.4477 1-1 1h-7c-0.5523 0-1-0.4477-1-1s0.4477-1 1-1h7c0.5523 0 1 0.4477 1 1zm-1 10c0.5523 0 1-0.4477 1-1s-0.4477-1-1-1h-7c-0.5523 0-1 0.4477-1 1s0.4477 1 1 1h7zm-8.3155-13.729c0.4026 0.378 0.4225 1.0109 0.0445 1.4135l-3.7558 4c-0.2076 0.2211-0.5043 0.336-0.8067 0.3125-0.3023-0.0236-0.5776-0.183-0.7485-0.4336l-1.2441-1.8242c-0.3113-0.4563-0.1936-1.0784 0.2627-1.3896 0.4562-0.3112 1.0783-0.1936 1.3895 0.2627l0.542 0.7948 2.9029-3.0916c0.378-0.4026 1.0109-0.4225 1.4135-0.0445zm0.0445 10.414c0.378-0.4026 0.3581-1.0355-0.0445-1.4135s-1.0355-0.3582-1.4135 0.0445l-2.9029 3.0915-0.542-0.7947c-0.3112-0.4562-0.9333-0.5739-1.3895-0.2627-0.4563 0.3112-0.574 0.9334-0.2627 1.3896l1.2441 1.8242c0.1709 0.2506 0.4462 0.41 0.7485 0.4336 0.3024 0.0235 0.5991-0.0914 0.8067-0.3125l3.7558-4z" clip-rule="evenodd" fill="#fff" fill-rule="evenodd"/><defs><linearGradient id="a" x1="3.1279" x2="44.872" y1="-1.0868e-6" y2="48" gradientUnits="userSpaceOnUse"><stop stop-color="#3E8BFF" offset="0"/><stop stop-color="#857CFF" offset="1"/></linearGradient></defs></svg>